# xmcd
#
# Track frame offsets:
#	150
#	11918
#	21455
#	32853
#	44675
#	53300
#	65688
#	76628
#	89275
#	100200
#	114723
#	125980
#	137508
#	148133
#
# Disc length: 2123 seconds
#
# Revision: 6
# Processed by: cddbd v1.5.2PL0 Copyright (c) Steve Scherf et al.
# Submitted via: EZCDAudioConverter 6.0.5.1
#
DISCID=c708490e
DTITLE=Patsy Cline - Walkin' After Midnight
DYEAR=1957
DGENRE=Country
TTITLE0=Walkin' After Midnight
TTITLE1=Love, Love, Love Me, Honey Do
TTITLE2=Just Out Of Reach
TTITLE3=If I Could Only Stay Asleep
TTITLE4=Come On In {And Make Yourself At Home}
TTITLE5=A Poor Man's Roses {Or A Rich Man's Gold}
TTITLE6=There He Goes
TTITLE7=Just A Closer Walk With Thee
TTITLE8=That's How Much I Love You
TTITLE9=Then You'll Know
TTITLE10=Stop The World {And Let Me Off}
TTITLE11=Crazy Dreams
TTITLE12=Lovesick Blues
TTITLE13=Cry Not For Me
EXTD=
EXTT0=
EXTT1=
EXTT2=
EXTT3=
EXTT4=
EXTT5=
EXTT6=
EXTT7=
EXTT8=
EXTT9=
EXTT10=
EXTT11=
EXTT12=
EXTT13=
PLAYORDER=
